<?xml version="1.0" standalone="no"?>
<!DOCTYPE svg PUBLIC "-//W3C//DTD SVG 20010904//EN"
 "http://www.w3.org/TR/2001/REC-SVG-20010904/DTD/svg10.dtd">
<svg version="1.0" xmlns="http://www.w3.org/2000/svg"
 width="1024.000000pt" height="1024.000000pt" viewBox="0 0 1024.000000 1024.000000"
 preserveAspectRatio="xMidYMid meet">
<metadata>
Created by potrace 1.14, written by Peter Selinger 2001-2017
</metadata>
<g transform="translate(0.000000,1024.000000) scale(0.100000,-0.100000)"
fill="#000000" stroke="none">
<path d="M2170 8658 c0 -4 12 -43 26 -85 70 -213 257 -517 455 -740 l59 -67
-133 -136 c-189 -192 -417 -459 -417 -488 0 -6 33 -24 73 -40 213 -89 590
-169 927 -198 74 -6 77 -5 140 32 85 50 286 144 308 144 23 0 152 -42 152 -50
0 -3 -17 -14 -37 -24 -51 -24 -185 -107 -180 -112 2 -2 206 -8 453 -14 247 -6
526 -17 619 -25 205 -17 285 -19 322 -4 l28 10 -40 25 c-138 86 -215 116 -505
194 -413 112 -612 185 -885 325 -504 259 -873 573 -1211 1031 -49 66 -103 145
-121 175 -18 30 -32 51 -33 47z"/>
<path d="M4875 8653 c-27 -2 -117 -13 -200 -24 -320 -43 -606 -115 -850 -212
-244 -97 -608 -290 -720 -380 l-29 -25 84 -55 c99 -64 317 -179 446 -235 165
-72 528 -201 567 -202 5 0 -21 33 -58 73 -164 176 -264 380 -306 625 -20 122
-24 172 -11 172 4 0 13 -15 20 -32 17 -49 126 -213 197 -298 84 -100 245 -256
324 -314 261 -190 622 -361 1020 -480 137 -41 263 -73 773 -195 363 -88 492
-144 618 -271 89 -89 122 -141 167 -269 47 -134 73 -168 163 -213 94 -47 199
-68 337 -68 187 0 325 45 422 135 l49 46 26 -43 c32 -56 81 -179 103 -260 27
-99 25 -322 -4 -413 -32 -101 -104 -216 -186 -300 -69 -69 -182 -153 -192
-143 -3 3 2 22 11 43 35 84 28 228 -16 314 l-17 34 -22 -46 c-31 -64 -136
-174 -219 -230 -78 -53 -87 -56 -72 -27 20 37 40 170 40 261 0 104 5 99 -120
123 -203 40 -322 50 -610 51 -309 0 -380 -8 -545 -61 -99 -33 -163 -64 -240
-119 -60 -43 -122 -102 -114 -108 2 -2 39 -28 82 -57 171 -117 330 -306 526
-627 l62 -102 33 14 c80 33 203 120 249 175 14 16 28 30 31 30 11 0 6 -104 -9
-183 -8 -44 -29 -112 -50 -154 -19 -42 -34 -78 -31 -80 2 -2 35 3 73 11 84 17
158 53 235 112 31 24 59 44 61 44 12 0 -38 -141 -74 -210 -86 -166 -268 -365
-434 -475 -76 -50 -245 -140 -245 -131 0 3 9 20 20 39 50 85 93 302 71 358 -6
14 -10 17 -10 8 -2 -30 -112 -149 -188 -203 -43 -31 -81 -56 -84 -56 -3 0 3
26 14 58 29 83 35 281 13 393 -62 304 -272 546 -536 616 -81 22 -262 24 -340
4 -75 -19 -180 -63 -247 -103 -64 -38 -226 -196 -263 -257 -31 -51 -40 -52
-34 -3 13 92 48 204 89 287 44 89 59 111 184 260 63 76 64 77 58 126 -9 76
-60 172 -134 250 -170 180 -439 271 -808 272 -227 1 -405 -35 -569 -114 -85
-42 -50 -7 88 85 335 225 834 375 1248 376 149 0 150 2 50 77 -131 98 -227
138 -425 178 -157 32 -307 44 -537 45 -767 4 -1243 94 -1709 322 -79 39 -146
66 -150 61 -220 -320 -404 -758 -495 -1185 -62 -290 -70 -375 -71 -743 0 -389
14 -521 96 -865 156 -661 524 -1269 1079 -1784 79 -73 232 -198 237 -193 1 2
8 39 13 83 6 43 18 105 27 136 l15 57 32 -93 c39 -111 122 -243 197 -310 28
-25 54 -46 58 -46 11 0 89 122 115 180 67 148 80 331 33 473 -87 268 -352 447
-659 447 -153 0 -278 -31 -425 -106 -102 -53 -99 -40 25 85 132 133 273 221
437 274 144 46 290 62 444 47 320 -30 572 -168 754 -412 231 -308 260 -735 74
-1078 -33 -60 -139 -200 -181 -239 -14 -14 -26 -27 -26 -31 0 -4 24 -15 54
-25 l54 -18 48 28 c90 52 182 125 262 209 350 370 449 902 247 1322 -73 152
-214 308 -351 390 -66 39 -192 94 -215 94 -6 0 17 -21 52 -46 89 -65 206 -186
260 -269 50 -76 82 -135 77 -140 -2 -2 -82 30 -178 72 -365 157 -713 254 -980
275 -29 3 -43 13 -88 68 -366 447 -505 996 -386 1529 83 370 281 723 533 949
119 107 202 164 312 216 128 60 192 76 344 82 132 6 295 -10 410 -40 l49 -13
-79 -17 c-483 -103 -907 -386 -1148 -768 -55 -89 -66 -117 -30 -86 10 9 50 32
90 52 345 172 761 241 1088 180 89 -17 227 -58 263 -78 23 -12 22 -13 -20 -25
-112 -34 -186 -80 -286 -179 -110 -109 -156 -184 -193 -317 -29 -102 -32 -267
-6 -365 55 -206 225 -430 432 -568 270 -179 553 -277 1265 -437 575 -129 868
-224 1185 -382 332 -166 624 -419 830 -717 l68 -99 64 69 c444 481 745 1064
872 1692 124 607 96 1209 -81 1786 -134 440 -384 888 -707 1270 -117 139 -366
386 -493 490 -344 283 -773 518 -1188 651 -165 53 -389 105 -580 135 -209 32
-566 47 -775 33z m27 -246 c186 -131 231 -201 312 -479 25 -86 46 -161 46
-167 0 -5 -41 22 -92 62 -277 218 -337 280 -412 427 -53 103 -74 165 -90 269
l-13 79 76 -61 c42 -34 120 -93 173 -130z m1340 -198 c106 -22 218 -111 267
-212 87 -179 11 -410 -166 -505 -205 -109 -446 -27 -546 186 -28 59 -32 77
-31 152 0 112 26 180 102 261 102 110 225 149 374 118z m1388 -1071 c-24 -12
-69 -47 -100 -78 -73 -75 -180 -254 -196 -328 l-11 -57 -18 59 c-44 149 20
307 156 380 62 34 96 44 164 45 l50 1 -45 -22z m-5453 -630 c29 -32 35 -67 17
-104 -28 -58 -90 -70 -135 -25 -60 60 -24 151 59 151 27 0 44 -7 59 -22z m853
-163 c0 -2 -28 -39 -63 -82 -34 -43 -92 -121 -127 -173 -87 -127 -244 -285
-338 -340 -41 -23 -142 -69 -225 -102 -267 -105 -379 -176 -471 -298 -54 -73
-58 -62 -21 64 54 188 145 338 298 491 206 207 497 357 817 420 137 27 130 26
130 20z m-599 -1017 c-35 -107 -61 -255 -71 -412 -25 -365 -39 -421 -169 -669
-44 -83 -91 -187 -105 -230 -29 -90 -47 -247 -37 -329 4 -32 5 -58 4 -58 -2 0
-22 37 -43 83 -99 208 -141 494 -109 747 38 311 198 615 445 849 53 50 99 89
101 87 3 -3 -4 -33 -16 -68z m5219 -614 c199 -46 373 -190 474 -390 62 -125
81 -209 80 -369 0 -124 -4 -149 -27 -221 -49 -149 -163 -287 -283 -345 -85
-40 -200 -50 -285 -25 -155 45 -256 208 -215 348 31 107 107 177 216 198 71
14 144 -7 185 -51 l30 -32 -39 23 c-135 81 -318 -65 -276 -219 33 -124 180
-186 305 -127 231 107 298 495 133 774 -76 129 -228 243 -369 277 -105 24
-371 14 -519 -21 l-24 -5 19 22 c56 62 174 132 270 160 77 22 237 24 325 3z
m-5151 -730 c26 -21 31 -33 31 -69 0 -35 -5 -48 -26 -64 -15 -12 -41 -21 -59
-21 -46 0 -75 27 -82 77 -5 37 -2 46 25 73 38 37 70 38 111 4z"/>
<path d="M6070 6705 c0 -8 120 -86 155 -100 32 -14 33 -16 24 -52 -22 -94 1
-179 68 -253 82 -91 169 -120 362 -120 l117 0 -51 53 c-38 39 -60 75 -88 144
-79 189 -171 251 -456 308 -139 28 -131 27 -131 20z"/>
<path d="M4920 2895 c0 -2 7 -34 15 -71 71 -304 11 -660 -156 -930 -64 -104
-261 -308 -358 -372 -37 -25 -57 -44 -50 -47 26 -8 185 -35 300 -51 141 -18
483 -29 604 -19 l90 7 53 55 c143 146 163 363 47 537 -20 31 -58 74 -84 96
-40 35 -165 104 -226 126 -32 12 90 25 165 18 95 -8 145 -22 235 -64 179 -85
295 -221 341 -402 16 -63 16 -232 -1 -270 -9 -22 8 -19 190 31 l130 36 3 45
c6 79 -19 231 -53 327 -113 317 -395 580 -844 788 -156 72 -401 170 -401 160z"/>
</g>
</svg>
